<svg width="60" height="60" viewBox="0 0 60 60" fill="none" xmlns="http://www.w3.org/2000/svg">
  <!-- Whisk Icon with decorative elements -->
  <circle cx="30" cy="30" r="28" fill="#FFE5EC" stroke="#FF6B9D" stroke-width="2"/>

  <!-- Whisk handle -->
  <rect x="27" y="15" width="6" height="20" rx="3" fill="#FF6B9D"/>

  <!-- Whisk wires -->
  <path d="M30 35 L25 45" stroke="#FF6B9D" stroke-width="2" stroke-linecap="round"/>
  <path d="M30 35 L27 45" stroke="#FF6B9D" stroke-width="2" stroke-linecap="round"/>
  <path d="M30 35 L30 45" stroke="#FF6B9D" stroke-width="2" stroke-linecap="round"/>
  <path d="M30 35 L33 45" stroke="#FF6B9D" stroke-width="2" stroke-linecap="round"/>
  <path d="M30 35 L35 45" stroke="#FF6B9D" stroke-width="2" stroke-linecap="round"/>

  <!-- Decorative sparkles -->
  <circle cx="15" cy="15" r="2" fill="#FFD700"/>
  <circle cx="45" cy="15" r="2" fill="#FFD700"/>
  <circle cx="15" cy="45" r="2" fill="#FFD700"/>
  <circle cx="45" cy="45" r="2" fill="#FFD700"/>

  <!-- Heart accent -->
  <path d="M30 12 L32 10 C33 9 35 9 36 10 C37 11 37 13 36 14 L30 20 L24 14 C23 13 23 11 24 10 C25 9 27 9 28 10 L30 12Z" fill="#FF8C94"/>
</svg>
